<svg width="20" height="22" viewBox="0 0 20 22" fill="none" xmlns="http://www.w3.org/2000/svg">
<path d="M15.3269 10.0775C18.2771 11.2579 19.7285 14.0834 18.7659 17.0074C18.1099 19.0032 16.2411 20.6154 14.2387 21.3443C11.7139 22.266 8.32338 22.2068 5.83323 21.2248C0.782608 19.2356 -0.395593 13.7118 0.105895 9.11634C0.455208 5.89962 1.86398 2.76399 4.97437 1.1518C7.3181 -0.068036 10.3178 -0.241207 12.8841 0.269523C15.5483 0.79998 17.711 2.2982 19.0218 4.5669C19.4265 5.26285 19.7539 6.03222 19.9983 6.88819C20.0052 6.92107 19.9913 6.95505 19.9568 6.96163L18.1018 7.42632C18.0673 7.4329 18.0315 7.41317 18.0246 7.38687C17.7456 6.37856 17.3064 5.48314 16.6988 4.7017C14.8012 2.24779 11.3208 1.59129 8.32108 2.10202C4.78415 2.70591 2.83122 5.06667 2.25941 8.3086C1.7925 10.9412 1.93892 13.9913 3.21512 16.4189C4.28957 18.4618 6.23558 19.6082 8.57932 19.9272C9.84169 20.0926 11.0764 20.0729 12.2834 19.8603C14.0139 19.5556 15.8688 18.4673 16.6216 16.9088C17.1104 15.9005 17.1588 14.6215 16.6216 13.6197C16.3149 13.0498 15.8538 12.5917 15.2474 12.2476C15.2197 12.2278 15.1771 12.241 15.1632 12.2673C15.1563 12.2739 15.1563 12.2804 15.1563 12.287C15.086 12.778 14.9684 13.2614 14.7932 13.7326C14.5419 14.4023 14.1799 14.9799 13.698 15.45C12.0794 17.0348 9.26182 17.174 7.35732 16.0331C5.83671 15.118 5.26489 13.2482 5.99003 11.7094C6.74284 10.1181 8.58508 9.42869 10.3351 9.34869C11.3254 9.30266 12.2396 9.34211 13.0835 9.455C13.1181 9.46157 13.1457 9.43527 13.1538 9.40239V9.38266C13.0766 9.01769 12.9867 8.71959 12.8748 8.48724C12.2892 7.26083 10.9703 6.93532 9.65263 7.09423C8.80874 7.19397 8.14584 7.57209 7.65012 8.22201C7.62937 8.24831 7.59478 8.25489 7.56596 8.23516L5.99003 7.21371C5.96236 7.19398 5.95546 7.1611 5.97621 7.12712C6.82009 5.99935 7.9637 5.34285 9.41513 5.1642C10.6152 5.01186 11.9606 5.19051 13.0074 5.7944C14.5764 6.70955 15.1344 8.35463 15.2739 10.0183C15.2877 10.0512 15.3016 10.0709 15.3223 10.0775H15.3269ZM7.79999 12.6772C7.48642 13.6789 8.21157 14.468 9.19495 14.7059C10.5761 15.038 12.1105 14.7453 12.7665 13.3995C13.0247 12.869 13.178 12.2454 13.2265 11.5363C13.2265 11.5034 13.2057 11.4771 13.178 11.4771C12.1532 11.2853 11.0994 11.2447 10.025 11.3445C9.15344 11.4311 8.07207 11.8092 7.79999 12.6772Z" fill="#FEFEFE"/>
</svg>
